<svg xmlns="http://www.w3.org/2000/svg" width="42" height="40" viewBox="0 0 42 40" fill="none">
<path d="M41.0784 30.0258C41.0784 31.6204 41.0628 33.2307 41.0784 34.8253C41.0784 35.5288 40.7808 35.9822 40.1385 36.248C37.3185 37.4517 34.5142 38.6555 31.6943 39.8593C31.2399 40.0469 30.8326 40.0469 30.3783 39.8593C27.574 38.6399 24.754 37.4517 21.9341 36.248C21.3074 35.9822 21.0098 35.5444 21.0098 34.8566C21.0254 31.6204 21.0254 28.3999 21.0098 25.1638C21.0098 24.4915 21.2918 24.0538 21.9028 23.8036C24.7384 22.5998 27.574 21.3804 30.4096 20.161C30.8326 19.9734 31.2243 19.9734 31.6473 20.161C34.4829 21.3804 37.3185 22.5998 40.1541 23.8036C40.7651 24.0694 41.0471 24.5071 41.0471 25.1638C41.0784 26.8053 41.0784 28.4155 41.0784 30.0258ZM32.3052 36.8733C32.4776 36.8108 32.6029 36.7639 32.7126 36.717C34.5455 35.9353 36.3785 35.138 38.2115 34.3719C38.4778 34.2625 38.5875 34.1374 38.5718 33.8404C38.5561 31.6673 38.5718 29.4943 38.5562 27.3212C38.5562 27.2118 38.5405 27.1023 38.5405 26.9929C38.4935 26.9772 38.4778 26.9772 38.4778 26.9772C36.4725 27.8215 34.4829 28.6813 32.4776 29.5412C32.3836 29.5724 32.3052 29.7288 32.3052 29.8226C32.3052 32.152 32.3052 34.4814 32.3052 36.8733ZM27.9657 28.822C27.9343 28.9002 27.9343 28.9158 27.9343 28.9158C27.9343 29.6506 27.9343 30.401 27.9343 31.1358C27.9343 31.9644 27.4173 32.5272 26.6653 32.5272C25.929 32.5272 25.4277 31.9487 25.4277 31.1201C25.4277 30.0883 25.4277 29.0565 25.4277 28.0403C25.4277 27.9153 25.3964 27.7277 25.3337 27.6964C24.7697 27.4306 24.1744 27.1961 23.5791 26.9303C23.5634 27.0241 23.5477 27.0554 23.5477 27.1023C23.5477 29.3848 23.5477 31.6517 23.5477 33.9342C23.5477 34.1687 23.6417 34.2469 23.8297 34.325C25.7254 35.1223 27.621 35.9353 29.501 36.7482C29.595 36.7795 29.689 36.8108 29.8143 36.8577C29.8143 34.4814 29.8143 32.1363 29.8143 29.7913C29.8143 29.7131 29.7516 29.5881 29.6733 29.5568C29.0936 29.291 28.5453 29.0565 27.9657 28.822ZM36.6292 25.0231C36.1592 24.8198 35.8145 24.6478 35.4385 24.5228C35.2505 24.4602 34.9999 24.4446 34.8275 24.5228C33.6996 25.0074 32.6029 25.539 31.4906 26.0392C30.9266 26.305 30.3783 26.5551 29.7516 26.8522C30.0806 26.9929 30.3469 27.0867 30.5976 27.2274C30.8953 27.3994 31.1616 27.3837 31.4749 27.2274C32.2739 26.8522 33.1042 26.5239 33.9189 26.1799C34.8119 25.8047 35.6735 25.4452 36.6292 25.0231ZM31.9606 23.0689C31.4123 22.6624 30.8953 22.6624 30.2843 22.9594C28.8586 23.6317 27.386 24.2101 25.9447 24.8354C25.8194 24.8823 25.694 24.9605 25.5217 25.0543C25.7567 25.1638 25.9447 25.2263 26.1014 25.3201C26.4773 25.539 26.8063 25.4921 27.198 25.3201C28.6706 24.6166 30.1746 23.9443 31.6629 23.2565C31.7569 23.1783 31.8509 23.1158 31.9606 23.0689Z" fill="#ECAD48"/>
<path d="M27.8088 11.203C27.5425 11.5 27.3075 11.7658 27.0568 12.0003C26.4928 12.5631 25.7252 12.5787 25.2082 12.0628C24.7069 11.5469 24.7382 10.7965 25.2709 10.2493C25.5215 9.9992 25.7879 9.7647 26.0855 9.48329C23.8609 7.65417 21.3699 6.62235 18.503 6.32531C18.503 6.70052 18.503 7.06009 18.503 7.40403C18.503 8.20134 17.986 8.76415 17.2653 8.76415C16.5447 8.76415 16.012 8.20134 15.9964 7.41966C15.9964 7.07572 15.9964 6.71615 15.9964 6.32531C13.1451 6.60672 10.6541 7.63853 8.41381 9.46766C8.71147 9.74906 8.9778 9.98357 9.22846 10.2493C9.74545 10.7809 9.76112 11.5469 9.2598 12.0316C8.75847 12.5475 7.99082 12.5318 7.44249 12.0003C7.19183 11.7502 6.95683 11.4844 6.69051 11.1874C4.84187 13.423 3.82355 15.9087 3.52589 18.7696C3.91755 18.7696 4.27788 18.7696 4.6382 18.7696C5.40586 18.7696 5.96985 19.3012 5.96985 20.0047C5.96985 20.7238 5.40586 21.2554 4.62254 21.271C4.27788 21.271 3.91755 21.271 3.52589 21.271C3.80788 24.1163 4.84187 26.6021 6.67484 28.8377C6.95683 28.5406 7.19183 28.2748 7.45816 28.0247C7.99082 27.5088 8.7428 27.4932 9.24413 27.9778C9.76112 28.4781 9.74546 29.2441 9.2128 29.7913C8.96213 30.0414 8.69581 30.2759 8.39814 30.5573C10.6228 32.4021 13.1137 33.4183 15.9807 33.7153C15.9807 33.3245 15.9807 32.9649 15.9807 32.6053C15.9807 31.8237 16.529 31.2609 17.2497 31.2609C17.9547 31.2765 18.4716 31.8237 18.4873 32.6053C18.4873 33.3558 18.4873 34.1218 18.4873 34.8722C18.4873 35.779 17.9703 36.2792 17.0773 36.2636C9.79246 36.2167 3.35356 31.214 1.48926 24.1789C-0.798041 15.5491 4.30921 6.68488 12.9414 4.32421C13.0981 4.27731 13.2704 4.24605 13.4741 4.18351C13.4114 2.82339 13.8344 1.65087 14.931 0.791028C15.683 0.196952 16.5447 -0.0531852 17.4847 0.00934911C19.0513 0.087517 21.1036 1.36947 21.0096 4.16788C21.7616 4.41802 22.5292 4.63689 23.2499 4.93392C28.0595 6.95065 31.2868 10.4213 32.8534 15.3928C33.0884 16.1276 32.7281 16.8311 32.0544 17.0343C31.3651 17.2375 30.7071 16.878 30.4565 16.1432C30.4251 16.0494 30.3938 15.9712 30.3781 15.8774C29.8611 14.2359 29.0465 12.7351 27.9655 11.4062C27.9655 11.3593 27.9185 11.3124 27.8088 11.203ZM18.456 3.77704C18.55 3.4331 18.3776 3.01099 18.0017 2.74522C17.5787 2.43255 17.0147 2.43255 16.576 2.71396C16.1844 2.97973 15.9964 3.40183 16.0747 3.77704C16.8737 3.77704 17.657 3.77704 18.456 3.77704Z" fill="#ECAD48"/>
<path d="M17.5635 24.4134C15.1509 24.4134 13.4902 22.7249 13.4902 20.63C13.5059 18.5664 15.1979 16.878 17.2658 16.9093C17.6262 16.9093 17.7828 16.8154 17.9395 16.5028C18.5662 15.2052 19.2241 13.9232 19.8665 12.6257C20.1328 12.0941 20.6498 11.8283 21.1824 11.9065C21.7151 11.9847 22.1694 12.3755 22.2321 12.9227C22.2634 13.2197 22.1851 13.5793 22.0598 13.8451C21.4488 15.1427 20.7908 16.409 20.1485 17.6909C20.0231 17.9411 20.0231 18.0974 20.2111 18.3319C21.1354 19.5513 21.3234 20.8958 20.6498 22.2872C19.9605 23.6786 18.7855 24.3508 17.5635 24.4134ZM18.5192 20.6613C18.5192 19.9891 17.9708 19.4106 17.2815 19.4106C16.5922 19.395 16.0282 19.9422 16.0125 20.63C15.9969 21.3179 16.5765 21.912 17.2658 21.912C17.9395 21.8964 18.5192 21.3336 18.5192 20.6613Z" fill="#ECAD48"/>
</svg>