<svg xmlns="http://www.w3.org/2000/svg" width="58" height="40" viewBox="0 0 58 40" fill="none">
<path d="M33.3435 20.1604C23.1427 19.612 13.8632 10.837 13.2051 1.52588e-05C22.6162 0.592322 30.3381 7.59032 32.6415 15.9045C28.4296 12.0655 23.0988 12.0655 21.8484 12.1313C26.5649 11.9778 33.3435 20.1604 33.3435 20.1604Z" fill="#ECAD48"/>
<path d="M57.0369 1.52588e-05C56.642 9.65242 48.3278 19.1293 37.5127 20.1165C39.0483 15.4877 48.8543 7.37094 48.8543 7.37094C38.0392 11.0783 36.9423 19.612 36.8984 20.1384C37.7101 8.97237 46.9677 0.592322 57.0369 1.52588e-05Z" fill="#ECAD48"/>
<path d="M18.4035 32.5988C18.4912 32.4891 18.557 32.4014 18.6448 32.2917C19.983 30.5806 20.2682 28.6721 19.3687 26.6977C18.4474 24.7014 16.824 23.6484 14.6083 23.5826C13.1824 23.5607 11.7565 23.5826 10.3306 23.5826C10.2209 23.5826 10.1331 23.6045 10.0234 23.6265V39.9917H13.2921V34.2441C13.7308 34.2441 14.1257 34.2222 14.4986 34.2441C15.6833 34.288 16.4949 35.0777 16.5608 36.2404C16.6046 36.8327 16.5827 37.4031 16.5827 37.9954V39.9917C17.7015 39.9917 18.7545 39.9917 19.8952 39.9478C19.8952 38.9387 19.8513 37.9735 19.8952 36.9863C19.9391 35.341 19.5881 33.8493 18.4035 32.5988ZM16.5608 29.1327C16.4511 30.1419 15.6394 30.9097 14.6303 30.9535C14.2135 30.9755 13.7967 30.9535 13.314 30.9535C13.314 29.5715 13.314 28.2552 13.336 26.9171C13.9283 26.9171 14.5206 26.8293 15.069 26.939C16.0562 27.1364 16.6704 28.1236 16.5608 29.1327Z" fill="#ECAD48"/>
<path d="M41.3735 23.6045C42.4484 23.6045 43.5014 23.6045 44.6202 23.6045C44.6202 23.8458 44.6202 24.0652 44.6202 24.2627C44.6202 26.0615 44.6422 27.8384 44.6202 29.6373C44.6202 30.0541 44.7299 30.1857 45.1467 30.1638C46.0461 30.1418 46.9236 30.1638 47.9108 30.1638C47.9108 29.045 47.9108 27.9481 47.9108 26.8513C47.9108 25.7763 47.9108 24.7014 47.9108 23.6045C49.0296 23.6045 50.0826 23.6045 51.1575 23.6045C51.1575 29.0669 51.1575 34.5293 51.1575 39.9917C50.0826 39.9917 49.0296 39.9917 47.9108 39.9917C47.9108 37.8199 47.9108 35.67 47.9108 33.4763C46.8139 33.4763 45.761 33.4763 44.6202 33.4763C44.6202 35.6262 44.6202 37.798 44.6202 39.9917C43.5014 39.9917 42.4484 39.9917 41.3516 39.9917C41.3735 34.5293 41.3735 29.1108 41.3735 23.6045Z" fill="#ECAD48"/>
<path d="M30.6009 35.4726C31.6539 35.4726 32.7069 35.4726 33.8257 35.4726C33.8476 35.5384 33.8696 35.6481 33.8915 35.7359C34.0889 36.3501 34.5716 36.723 35.1419 36.723C35.6465 36.723 36.151 36.372 36.3265 35.8894C36.5459 35.341 36.3704 34.7706 35.8659 34.3757C34.7251 33.4983 33.5405 32.6646 32.3998 31.7652C30.7106 30.449 30.1402 28.343 30.8861 26.4125C31.6539 24.482 33.5844 23.3413 35.7123 23.5826C37.6428 23.78 39.3319 25.4253 39.6391 27.3997C39.661 27.6191 39.661 27.8384 39.6829 28.0797C38.5861 28.0797 37.5331 28.0797 36.4362 28.0797C36.3046 27.4874 35.9975 26.9829 35.3174 26.8732C34.7032 26.7854 34.1767 27.0926 33.9573 27.641C33.7379 28.1894 33.8696 28.7598 34.3961 29.1547C35.5368 30.0322 36.6995 30.8877 37.8621 31.7652C39.3539 32.9279 39.9681 34.4635 39.6171 36.3062C39.2442 38.1709 38.0815 39.3775 36.2168 39.8601C33.3869 40.6059 30.4035 38.2586 30.6009 35.4726Z" fill="#ECAD48"/>
<path d="M28.8908 33.4544C27.794 33.4544 26.741 33.4544 25.666 33.4544C25.666 34.5512 25.666 35.6042 25.666 36.723C26.741 36.723 27.8159 36.723 28.8908 36.723C28.8908 37.8418 28.8908 38.8948 28.8908 39.9917C26.719 39.9917 24.5472 39.9917 22.3535 39.9917C22.3535 34.5293 22.3535 29.0889 22.3535 23.6045C24.5253 23.6045 26.6752 23.6045 28.8689 23.6045C28.8689 24.6575 28.8689 25.7105 28.8689 26.8513C27.8159 26.8513 26.741 26.8513 25.6441 26.8513C25.6441 27.9701 25.6441 29.023 25.6441 30.1419C26.719 30.1419 27.772 30.1419 28.8689 30.1419C28.8908 31.2607 28.8908 32.3136 28.8908 33.4544Z" fill="#ECAD48"/>
<path d="M7.5017 26.8732C6.40484 26.8732 5.35185 26.8732 4.27692 26.8732C4.27692 27.9701 4.27692 29.023 4.27692 30.1419C5.35185 30.1419 6.40484 30.1419 7.5017 30.1419C7.5017 31.2607 7.5017 32.3136 7.5017 33.4324C6.42678 33.4324 5.37379 33.4324 4.25498 33.4324C4.25498 35.6481 4.25498 37.798 4.25498 39.9917C3.13618 39.9917 2.08319 39.9917 0.986328 39.9917C0.986328 34.5293 0.986328 29.0889 0.986328 23.6045C3.15812 23.6045 5.30797 23.6045 7.5017 23.6045C7.5017 24.6795 7.5017 25.7325 7.5017 26.8732Z" fill="#ECAD48"/>
</svg>