<svg xmlns="http://www.w3.org/2000/svg" width="46" height="45" viewBox="0 0 46 45" fill="none">
<path d="M17.123 35.1451C17.158 35.2149 17.2104 35.2848 17.2628 35.3373L17.2978 35.18L17.123 35.1451Z" fill="#FDBA4D"/>
<path d="M37.0276 37.9233V38.0107C37.0626 37.9757 37.0975 37.9583 37.1325 37.9233H37.0276ZM29.916 14.2644L30.0034 14.3518L30.0732 14.2819C30.0033 14.2819 29.9684 14.2644 29.916 14.2644ZM17.1255 35.145L16.8809 35.0926C16.9333 35.1625 16.9682 35.2324 17.0206 35.3023C17.0381 35.3198 17.0556 35.3547 17.0731 35.3722C17.108 35.4421 17.1604 35.4945 17.2129 35.5644C17.2303 35.4945 17.2478 35.4246 17.2653 35.3547V35.3373L17.3002 35.18L17.1255 35.145Z" fill="#FDBA4D"/>
<path d="M39.542 20.1354C37.1656 16.4835 33.4613 14.7711 30.054 14.2819L29.9841 14.3518L29.8967 14.2644C27.765 13.9848 25.7555 14.1945 24.2703 14.7187L24.113 14.7711L24.6198 16.4486L24.777 16.4136C30.7354 14.841 35.5756 17.5494 37.6724 20.7819C37.5326 20.7819 37.4103 20.7819 37.2879 20.7819C35.925 20.6596 34.1602 20.6946 32.7449 22.04C32.7099 22.075 32.5352 22.075 32.5002 22.04C31.7664 21.5682 30.9626 21.5333 30.2637 21.5508C29.8967 21.5682 29.5298 21.5682 29.1628 21.5508C28.9007 21.5508 28.6386 21.5508 28.3765 21.5508C28.1843 21.5508 27.9572 21.5508 27.7824 21.6906C27.4854 21.9002 27.1709 22.1099 26.8564 22.2847C26.2448 22.6516 25.5983 23.036 25.109 23.6476L24.4276 21.0965C23.5888 17.9862 22.7326 14.7711 21.8939 11.6084C21.8415 11.4337 21.8939 11.3638 22.0512 11.224C22.523 10.7697 22.9773 10.2979 23.4316 9.82615C24.4276 8.8127 25.441 7.7643 26.5069 6.80326C27.765 5.63255 28.6561 4.18226 29.5298 2.78439L29.6346 2.62713C30.0715 1.9282 29.9666 1.072 29.3725 0.495383C28.7959 -0.081238 27.9746 -0.151132 27.2408 0.268229C26.8389 0.495383 26.5069 0.722536 26.1924 0.932216C26.0002 1.072 25.7905 1.19432 25.5808 1.3341C25.0741 1.6661 24.5499 1.99809 24.113 2.41745C22.6453 3.81532 21.195 5.28308 19.7971 6.69842C19.4127 7.08284 19.0458 7.46725 18.6614 7.83419C18.5041 8.00892 18.3993 8.0264 18.1896 7.97398C15.6035 7.34494 13 6.7159 10.4139 6.06938C8.26471 5.54518 6.09801 5.02098 3.94879 4.49678C3.40711 4.35699 3.0227 4.46183 2.67323 4.84625C2.39366 5.14329 2.11409 5.42287 1.83451 5.71991C1.69473 5.8597 1.53746 6.01696 1.39768 6.15675C1.06568 6.48874 0.925898 6.82074 0.978318 7.13526C1.03074 7.44978 1.29284 7.6944 1.72967 7.88661C3.30227 8.58555 4.87488 9.28448 6.46495 9.96594L13.4368 13.0413L12.8253 13.6703C10.7284 15.7671 8.54428 17.9513 6.39506 20.0655C6.34264 20.118 6.18538 20.1529 6.02812 20.1354C5.24182 20.0306 4.4031 19.9258 3.31975 19.751C2.81302 19.6811 2.42861 19.8034 2.09661 20.1704C1.85199 20.45 1.57241 20.7121 1.31031 20.9742C1.17052 21.1139 1.01326 21.2537 0.873477 21.411C0.436644 21.8478 0.401697 22.2148 0.454117 22.4419C0.506537 22.6691 0.698744 22.9661 1.29284 23.1758L2.14903 23.4728C3.09259 23.8048 4.05363 24.1368 5.01466 24.4339C5.29424 24.5212 5.41655 24.661 5.52139 24.9581C5.9757 26.3385 6.43 27.7014 6.79694 28.7148C6.93673 29.1342 7.19883 29.3963 7.51335 29.4662C7.82787 29.5361 8.17734 29.3963 8.49186 29.0818C8.64912 28.9245 8.80638 28.7498 8.98111 28.5925C9.22574 28.3304 9.48784 28.0683 9.74994 27.8237C10.0994 27.4917 10.2392 27.1073 10.1693 26.618C10.1169 26.2511 10.0645 25.8842 10.012 25.5347C9.94215 25.0105 9.87225 24.4688 9.76741 23.9446C9.73247 23.7175 9.76741 23.5952 9.94215 23.4204C11.6021 21.7605 13.2446 20.118 14.9046 18.458L16.7742 16.5883C16.8092 16.5534 16.8441 16.5184 16.8965 16.4835C16.9315 16.5709 16.9839 16.6582 17.0189 16.7456L22.5404 28.6974C22.8375 29.3264 23.0472 29.4837 23.6238 29.4837L23.7985 30.0254C23.9733 30.5845 24.1655 31.1262 24.3402 31.6853C24.4975 32.1746 24.8644 32.4192 25.3711 32.4017C25.5808 32.4017 25.773 32.4017 25.9827 32.4017H26.0176C26.0526 32.4017 26.0875 32.4017 26.1225 32.4017C26.1574 32.4017 26.2098 32.4017 26.2448 32.4017C26.5943 32.9085 26.9437 33.4327 27.2757 33.9743C27.2757 34.0093 27.2582 34.0442 27.2408 34.0792C27.2233 34.1141 27.2058 34.1665 27.2058 34.2015C27.1359 34.4811 27.066 34.7606 26.9961 35.0402C26.8913 35.4596 26.769 35.8964 26.6641 36.3158C26.5593 36.7176 26.5943 37.0496 26.7865 37.2768C26.9612 37.5039 27.2757 37.6263 27.6951 37.6263C28.3591 37.6263 29.0056 37.6263 29.6171 37.6263C30.2637 37.6263 30.5258 37.4341 30.7354 36.805C30.9102 36.2633 31.1024 35.7042 31.2771 35.1625C31.5217 34.4286 31.7664 33.6948 32.011 32.9609C32.0809 32.7687 32.1508 32.6289 32.2381 32.5066C32.7449 31.7902 33.2865 31.0738 33.8107 30.3573C33.8981 30.2525 33.9855 30.2001 34.003 30.2001C34.7194 30.1651 35.3484 30.1826 35.8551 30.6893C35.9774 30.8116 36.2395 30.9514 36.4492 30.899C36.6939 30.8291 36.8162 30.934 37.0258 31.1611L37.0957 31.231C37.1482 31.2834 37.2006 31.3359 37.253 31.3883C37.4103 31.563 37.585 31.7377 37.7597 31.895C37.7947 31.9299 37.8296 31.9474 37.8646 31.9824C38.0393 32.1571 38.249 32.3318 38.5111 32.3843C38.6858 32.4192 38.8605 32.3843 39.0178 32.3318C37.6025 35.7391 34.6495 38.2728 31.0325 39.1639C27.3281 40.0725 23.5714 39.1639 20.6883 36.6827C21.5794 36.0886 21.859 35.18 22.1385 34.2888C22.191 34.1141 22.2434 33.9394 22.3133 33.7646C22.3308 33.7297 22.3308 33.6773 22.3482 33.6423C22.3657 33.5899 22.3832 33.5375 22.4006 33.4851C22.5754 33.0308 22.488 32.6289 22.1211 32.2619C21.492 31.6504 20.828 31.0039 20.1815 30.3224C19.867 29.9904 19.5001 29.8331 19.0458 29.8506C18.4866 29.8681 17.91 29.8681 17.3159 29.8506C17.1237 29.8506 16.914 29.8506 16.7218 29.8506C16.7218 29.7633 16.7043 29.6759 16.6869 29.5885C16.6519 29.274 16.617 28.9769 16.6519 28.7148C16.6694 28.6799 16.7917 28.5925 16.8791 28.5401C16.9839 28.4702 17.0713 28.4178 17.1586 28.3304C17.6654 27.8237 18.1721 27.3345 18.6614 26.8277C19.0807 26.4084 19.5175 25.989 19.9369 25.5522C20.3038 25.1852 20.3737 24.7833 20.1815 24.329C19.7098 23.2806 19.238 22.372 18.1896 21.9002L18.4517 21.411L16.949 20.4674L16.8616 20.6072C13.9435 24.9057 14.0659 30.7418 16.8965 35.1625L17.1412 35.2149L17.3159 35.2499L17.281 35.4071V35.4246C17.2635 35.4945 17.246 35.5644 17.2285 35.6343C17.6479 36.2459 18.1371 36.8225 18.6788 37.3642C21.2474 39.9502 24.777 41.2782 28.3066 41.2782C31.382 41.2782 34.4747 40.2647 36.9035 38.2204C36.956 38.1854 36.9909 38.133 37.0433 38.098V38.0107H37.1482C42.3028 33.3802 43.3337 25.9541 39.542 20.1354ZM23.7636 26.9326C23.7112 26.8103 23.6413 26.6879 23.5888 26.5656L22.488 24.2067C21.0377 21.044 19.57 17.8988 18.1022 14.7362C17.9624 14.4391 17.8052 14.2294 17.6304 14.0897C17.5256 14.0023 17.3683 13.9149 17.1761 13.9149C16.949 13.9149 16.6694 14.0198 16.3374 14.3518C14.8522 15.837 13.3669 17.3222 11.8817 18.8075L9.6451 21.044C9.17332 21.5158 8.68407 22.0051 8.21229 22.4769C7.89777 22.7914 7.77545 23.1408 7.84535 23.5777C7.91524 23.9796 7.96766 24.3989 8.02008 24.7833C8.08997 25.2726 8.15987 25.7619 8.22976 26.2511C8.28218 26.5132 8.22976 26.6705 8.0725 26.8103C7.98513 26.5656 7.91524 26.321 7.82787 26.0938C7.56577 25.325 7.32115 24.5911 7.09399 23.8398C6.91926 23.2806 6.60474 22.9661 6.06306 22.7914C5.31171 22.5642 4.57783 22.3196 3.809 22.0575C3.56437 21.9701 3.31975 21.8828 3.07512 21.8129C3.21491 21.6556 3.33722 21.6032 3.56437 21.6556C4.5953 21.8303 5.50392 21.9701 6.34264 22.04C6.63968 22.075 7.09399 21.9701 7.33862 21.7255C10.0994 18.9997 12.8253 16.2913 15.6035 13.4956C15.9705 13.1286 16.0054 12.7966 15.953 12.5869C15.918 12.3598 15.7433 12.0453 15.2016 11.8181C12.6156 10.6823 10.0295 9.54658 7.44346 8.41081L3.87889 6.83821C3.73911 6.78579 3.61679 6.7159 3.47701 6.66348C3.63427 6.4538 3.82647 6.41885 4.21089 6.50622C7.19883 7.2401 10.2392 7.97398 13.1747 8.67291C14.9046 9.09227 16.6344 9.51163 18.3643 9.93099C18.9584 10.0708 19.3253 9.79121 19.57 9.52911C20.0417 9.05733 20.5135 8.56807 20.9853 8.09629C22.4181 6.646 23.9034 5.12582 25.4235 3.71048C25.9827 3.18628 26.6641 2.76692 27.3107 2.34756C27.5029 2.22524 27.6776 2.1204 27.8698 1.99809C26.9961 3.51827 25.9303 4.88119 24.5848 6.13928C23.6762 6.978 22.8025 7.88661 21.9463 8.74281C21.4221 9.26701 20.8805 9.82615 20.3388 10.3504C19.9544 10.7348 19.8495 11.1367 19.9893 11.6609C20.531 13.6353 21.0552 15.6273 21.5794 17.6193C22.3308 20.4674 23.1171 23.4029 23.9034 26.2861C24.0257 26.6006 23.9907 26.7753 23.7636 26.9326ZM17.3159 23.4903C17.3334 23.5078 17.3508 23.5253 17.3858 23.5253C17.5431 23.6301 17.6828 23.7175 17.8052 23.8223C17.9974 23.997 18.1022 24.1718 18.1022 24.3465C18.1022 24.5212 18.0148 24.696 17.8226 24.9057C17.4906 25.2377 17.1586 25.5696 16.7917 25.9366L16.6344 26.0938C16.7393 25.2202 16.9664 24.3815 17.3159 23.4903ZM20.4786 33.1706C20.4436 33.2579 20.4262 33.3628 20.3912 33.4501C20.1815 34.1665 19.9893 34.848 19.3079 35.2848C18.2944 34.0617 17.6304 32.8735 17.2285 31.598H17.5256C18.0148 31.598 18.4517 31.598 18.8885 31.598C18.906 31.598 18.9759 31.6329 19.0632 31.7203C19.535 32.1746 19.9719 32.6114 20.3737 33.0482C20.4262 33.0832 20.4611 33.1356 20.4786 33.1706ZM39.6119 29.2915C39.3498 29.5011 39.1052 29.7283 38.878 29.938C38.8081 29.9904 38.7557 30.0603 38.6858 30.1127C37.917 29.0643 36.7812 28.7673 35.6629 28.4702C35.4882 28.4178 35.296 28.3654 35.1213 28.313C34.6495 28.1732 34.1253 28.2256 33.636 28.2605C33.5137 28.278 33.4089 28.278 33.2865 28.2955C33.0594 28.313 32.8148 28.5052 32.675 28.6974C32.0285 29.5361 31.347 30.4447 30.5432 31.5281C30.4034 31.7028 30.3336 31.9299 30.2637 32.1222C30.0016 32.9259 29.722 33.7297 29.4599 34.5335L29.1978 35.3198C29.1279 35.5295 29.0755 35.6867 29.0231 35.7042C28.9706 35.7217 28.8483 35.7217 28.6736 35.6867C28.7085 35.5819 28.726 35.477 28.761 35.3722C28.8483 34.9878 28.9532 34.6034 29.0755 34.219C29.2327 33.7122 29.1628 33.2929 28.8658 32.8735C28.429 32.2969 28.0795 31.7552 27.765 31.2135C27.433 30.6544 26.9787 30.4098 26.3671 30.4797C26.2623 30.4971 26.1399 30.4971 26.0002 30.4797C25.9827 30.4797 25.9477 30.4797 25.9303 30.4797C25.9128 30.4098 25.8778 30.3224 25.8429 30.2525C25.7381 29.938 25.6332 29.6584 25.5459 29.3614C25.5284 29.2915 25.5284 29.1866 25.5633 29.1342C26.1749 28.2081 26.2273 27.1597 26.1749 26.2686C26.1399 25.4299 26.4894 24.7659 27.2582 24.1892C28.0795 23.5777 28.9007 23.3331 29.9317 23.368C30.8228 23.403 31.4518 23.5602 31.9935 23.8922C32.5177 24.2067 33.0244 24.1893 33.4438 23.8048C34.5621 22.8089 35.8202 22.4244 37.3229 22.6341C37.6374 22.6691 37.9694 22.6691 38.3189 22.6341C38.6858 22.5992 38.8431 22.704 39.0003 23.071C39.7342 24.8532 40.0313 26.7054 39.909 28.6275C39.9264 28.942 39.8216 29.1342 39.6119 29.2915Z" fill="#FDBA4D"/>
<path d="M17.0875 35.3198C17.0875 35.3373 17.0875 35.3547 17.07 35.3722C17.0525 35.3547 17.0351 35.3198 17.0176 35.3023C17.0351 35.3023 17.07 35.3023 17.0875 35.3198Z" fill="#FDBA4D"/>
<path d="M17.1216 35.145L16.877 35.0926C16.9294 35.1625 16.9643 35.2324 17.0167 35.3023C17.0342 35.3198 17.0517 35.3547 17.0692 35.3722C17.1041 35.4421 17.1565 35.4945 17.2089 35.5644C17.2264 35.4945 17.2439 35.4246 17.2614 35.3547V35.3372L17.2963 35.18L17.1216 35.145Z" fill="#FDBA4D"/>
<path d="M24.1979 42.6236L23.7087 44.3535L23.534 44.3186C22.3458 44.004 21.1925 43.5323 20.0043 42.8857C18.3269 41.9771 16.7892 40.754 15.4263 39.2688C15.3215 39.1464 15.0943 39.0591 14.9196 39.0416C14.3779 39.0241 13.8537 39.0241 13.2771 39.0241C13.0674 39.0241 12.8403 39.0241 12.6306 39.0241H12.4559V37.2069H13.7664C10.7959 32.4367 10.1668 27.5267 11.8093 22.1798L11.8618 22.0051L13.6091 22.5992L13.5567 22.7564C12.1239 27.4043 12.6481 31.7203 15.1642 35.9139L15.4962 34.7257L16.8941 35.0577C16.9465 35.1276 16.9815 35.1975 17.0339 35.2674C17.0513 35.2848 17.0688 35.3198 17.0863 35.3373C17.1212 35.4071 17.1737 35.4596 17.2261 35.5295C17.1911 35.6692 17.1562 35.8265 17.1212 35.9663C16.9815 36.508 16.8591 37.0147 16.7194 37.5214C16.6495 37.7311 16.6844 37.8534 16.8417 38.0107C18.7113 40.0725 21.0178 41.5578 23.6912 42.414C23.7611 42.4314 23.831 42.4664 23.9009 42.4839L24.1979 42.6236Z" fill="#FDBA4D"/>
<path d="M29.916 14.2644L30.0034 14.3517L30.0733 14.2818C30.0034 14.2818 29.9684 14.2644 29.916 14.2644Z" fill="#FDBA4D"/>
<path d="M44.9953 23.1234L43.2305 23.6301L43.1781 23.4728C41.0813 17.3397 36.8352 13.6004 30.5448 12.3947C30.6147 12.4297 30.6671 12.4646 30.737 12.4996C30.8244 12.5695 30.9118 12.6394 31.0341 12.7267C31.104 12.7791 31.1739 12.849 31.2612 12.9189L31.436 13.0587L31.2612 13.1985C31.1739 13.2684 31.0865 13.3208 31.0166 13.3732C30.8594 13.4781 30.737 13.5829 30.6147 13.6878C30.5099 13.7926 30.405 13.8974 30.3002 14.0372C30.2478 14.1071 30.1954 14.1595 30.1255 14.2294L30.073 14.2993C30.0206 14.2993 29.9682 14.2819 29.9158 14.2819L29.8808 14.2469C29.7061 14.0722 29.5314 13.8974 29.3566 13.7402C28.9548 13.3383 28.5703 12.9714 28.2209 12.5695C27.9937 12.3074 27.7491 12.22 27.3822 12.2724C26.5959 12.3947 25.8096 12.4996 24.9883 12.6044L23.8525 12.7617L23.3633 11.0143L23.5555 10.9794C23.8875 10.927 24.202 10.8745 24.5165 10.8047C25.2504 10.6649 25.9493 10.5426 26.6657 10.4901C27.6792 10.4377 28.2908 10.1581 28.7451 9.54658C28.9548 9.24953 29.2169 9.0049 29.4615 8.76027C29.5663 8.65543 29.6712 8.55059 29.776 8.44575L29.8983 8.32344L31.2962 9.66889L30.3701 10.5076C37.7439 11.7832 42.5141 15.8545 44.9778 22.9661L44.9953 23.1234Z" fill="#FDBA4D"/>
<path d="M37.0234 37.9233V38.0106C37.0584 37.9757 37.0933 37.9582 37.1283 37.9233H37.0234Z" fill="#FDBA4D"/>
<path d="M45.4474 29.8681L45.4125 30.0603C45.3775 30.27 45.3251 30.4796 45.2902 30.7068C45.2028 31.1786 45.1154 31.6154 44.9931 32.0522C44.3117 34.6208 43.071 36.9623 41.3237 39.0066C41.2014 39.1464 41.114 39.3736 41.114 39.5833C41.0966 40.1075 41.0966 40.6317 41.0966 41.1733C41.0966 41.383 41.0966 41.5927 41.0966 41.8198V41.9946H39.2793V40.9811C36.4661 43.2527 33.3908 44.5457 29.8437 44.9126L29.669 44.9301L29.5117 43.0954L29.6865 43.0779C32.7618 42.7459 35.4352 41.6626 37.8465 39.758H37.0602V38.0107C37.0952 37.9757 37.1301 37.9582 37.165 37.9233H37.2349C37.4446 37.9233 37.6718 37.9233 37.8815 37.9233C38.4057 37.9233 38.9299 37.9233 39.4541 37.9408C39.7162 37.9408 39.8734 37.8709 40.0482 37.6612C41.8479 35.512 43.0011 33.0307 43.4729 30.3224C43.4904 30.2175 43.5079 30.1127 43.5428 29.9904L43.6127 29.6409L45.4474 29.8681Z" fill="#FDBA4D"/>
<path d="M45.5895 27.8412H43.7373L43.5801 25.4124L45.3973 25.1503L45.5895 27.8412Z" fill="#FDBA4D"/>
<path d="M28.3969 43.1304V45L26.5098 44.9126L26.667 43.1304H28.3969Z" fill="#FDBA4D"/>
</svg>