<svg width="18" height="22" viewBox="0 0 18 22" fill="none" xmlns="http://www.w3.org/2000/svg">
<path fill-rule="evenodd" clip-rule="evenodd" d="M13.5396 0.79895C13.6749 2.01144 13.1874 3.20645 12.4749 4.08474C11.7314 4.94956 10.5419 5.61074 9.38348 5.52558C9.23193 4.35889 9.8188 3.11808 10.4759 2.3611C11.2186 1.5019 12.5083 0.843939 13.5396 0.79895ZM17.3328 7.79408C17.2032 7.87032 15.061 9.13086 15.0845 11.7013C15.1122 14.8048 17.8402 15.8317 17.8728 15.8429C17.8565 15.9154 17.4454 17.3247 16.4224 18.7543C15.5679 20.0136 14.6728 21.2456 13.2509 21.2673C12.5751 21.2825 12.1187 21.0911 11.6432 20.8917C11.147 20.6837 10.63 20.4669 9.82119 20.4669C8.96413 20.4669 8.42434 20.6907 7.90382 20.9065C7.45342 21.0933 7.01744 21.274 6.40284 21.2986C5.04861 21.3476 4.01421 19.955 3.12871 18.7061C1.35893 16.158 -0.018923 11.5254 1.82847 8.37278C2.72354 6.82689 4.35582 5.83111 6.10054 5.8046C6.86878 5.78901 7.60563 6.08089 8.25157 6.33676C8.74546 6.5324 9.1862 6.70699 9.54721 6.70699C9.8644 6.70699 10.2929 6.53936 10.7923 6.34399C11.5792 6.03612 12.5423 5.65936 13.5233 5.76122C14.1943 5.7805 16.1036 6.02231 17.3354 7.79254L17.3328 7.79408Z" fill="white"/>
</svg>
