<svg xmlns="http://www.w3.org/2000/svg" width="38" height="40" viewBox="0 0 38 40" fill="none">
<path d="M36.3077 23.9588C35.704 23.9588 35.3217 24.4016 35.3217 25.106C35.3217 26.1929 35.3016 27.2797 35.3217 28.3666C35.3217 28.749 35.201 28.9301 34.879 29.1113C30.0901 31.7278 25.3012 34.3644 20.5123 36.981C20.3715 37.0615 20.2306 37.1218 20.0495 37.2225C20.0294 37.1017 20.0294 37.0212 20.0294 36.9407C20.0294 31.5869 20.0294 26.2331 20.0495 20.8995C20.0495 20.7183 20.2306 20.4768 20.3916 20.3762C21.7397 19.6113 23.0879 18.8868 24.436 18.1421C24.5567 18.0817 24.6976 18.0213 24.8988 17.9408V18.5446C24.8988 19.6918 24.8988 20.819 24.8988 21.9662C24.8988 22.9726 25.6634 23.3952 26.5488 22.9323C27.6756 22.3285 28.8024 21.6844 29.9493 21.0806C30.4322 20.819 30.6334 20.4567 30.6334 19.9132C30.6133 18.3433 30.6334 16.7533 30.6133 15.1834C30.6133 14.9016 30.6737 14.7205 30.9352 14.5796C32.3035 13.8349 33.6718 13.0902 35.04 12.3455C35.1205 12.3052 35.201 12.2851 35.3217 12.265C35.3217 13.7745 35.3217 15.2639 35.3217 16.7332C35.3217 17.4779 35.704 17.9207 36.3077 17.9408C36.9314 17.9609 37.3339 17.498 37.3339 16.7131C37.3339 14.7003 37.3339 12.6876 37.3339 10.6749C37.3339 10.1315 37.1125 9.76923 36.6296 9.50758C30.9755 6.40802 25.3213 3.30846 19.6873 0.188774C19.2245 -0.0527504 18.8221 -0.0728774 18.3593 0.188774C12.7052 3.30846 7.03093 6.42815 1.35667 9.52771C0.893879 9.78936 0.672542 10.1315 0.692664 10.6548C0.712785 11.2788 0.692664 11.8826 0.692664 12.5468V27.4408C0.692664 28.0848 0.712785 28.6886 0.692664 29.2924C0.672542 29.8359 0.893879 30.1981 1.37679 30.4799C7.05105 33.5795 12.7052 36.6992 18.3794 39.8189C18.8221 40.0604 19.2245 40.0604 19.6672 39.8189C25.3213 36.6992 30.9956 33.5795 36.6699 30.4799C37.1326 30.2384 37.354 29.8761 37.354 29.3528C37.3339 27.9641 37.354 26.5753 37.354 25.1865C37.3339 24.3814 36.9314 23.9386 36.3077 23.9588ZM28.581 19.3296C28.581 19.4302 28.4603 19.5711 28.3597 19.6113C27.917 19.873 27.4542 20.1145 26.9109 20.4164C26.9109 19.2088 26.9109 18.0817 26.9109 16.9747C26.9109 16.8741 26.9914 16.7533 27.0719 16.6929C27.5347 16.4111 28.0176 16.1696 28.581 15.8476C28.581 17.0753 28.6011 18.2024 28.581 19.3296ZM18.802 2.24173C18.963 2.16122 19.2447 2.2216 19.4258 2.32224C23.2488 4.41545 27.0518 6.50866 30.8749 8.60187C31.9816 9.20568 33.0681 9.80949 34.2352 10.4536C32.726 11.2989 31.2572 12.104 29.7883 12.8688C29.6475 12.9292 29.3859 12.8285 29.2048 12.7279C25.7037 10.8158 22.2226 8.90377 18.7215 6.97158C17.313 6.20675 15.9045 5.4218 14.4356 4.61672C15.9447 3.79151 17.3532 2.98643 18.802 2.24173ZM10.854 6.58916C12.2826 5.7237 12.2826 5.74383 13.7716 6.54891C18.1179 8.94403 22.4842 11.3391 26.8506 13.7343C27.0518 13.8349 27.253 13.9556 27.5548 14.1368C26.9914 14.4387 26.5286 14.7205 26.0055 14.962C25.8847 15.0224 25.6634 14.9016 25.5226 14.8211C20.955 12.3254 16.3874 9.80949 11.84 7.31374C11.4979 7.11247 11.1357 6.93132 10.7534 6.70993C10.8138 6.60929 10.8339 6.60929 10.854 6.58916ZM18.0173 36.9206C18.0173 37.0011 18.0173 37.0816 17.9971 37.2426C16.0252 36.1557 14.1137 35.1091 12.2021 34.0625C9.18392 32.4121 6.14558 30.7416 3.12736 29.0912C2.8859 28.9503 2.72493 28.8295 2.72493 28.4874C2.72493 23.1537 2.72493 17.82 2.72493 12.4864C2.72493 12.4059 2.72493 12.3254 2.74505 12.2046C2.86578 12.265 2.98651 12.2851 3.08712 12.3455C7.91627 15.0023 12.7655 17.659 17.6148 20.3158C17.8563 20.4567 18.0374 20.5774 18.0374 20.9196C18.0173 26.2533 18.0173 31.5869 18.0173 36.9206ZM19.2648 18.6452C19.1038 18.7258 18.8221 18.6654 18.641 18.5647C15.1801 16.6929 11.7394 14.7809 8.27846 12.8889C6.80959 12.0838 5.34072 11.2788 3.83161 10.4334C4.09319 10.2724 4.33465 10.1516 4.55599 10.0309C5.7834 9.34657 7.01081 8.66225 8.25834 8.01818C8.41931 7.93767 8.70101 7.89742 8.84186 7.97793C13.7716 10.6749 18.7014 13.3921 23.6311 16.0891C23.6513 16.1092 23.6714 16.1294 23.7317 16.2099C22.2428 17.0351 20.7538 17.8603 19.2648 18.6452Z" fill="#ECAD48"/>
</svg>