<svg xmlns="http://www.w3.org/2000/svg" width="141" height="99" viewBox="0 0 141 99" fill="none">
<rect x="0.0117188" width="140" height="99" rx="4" fill="white"/>
<path d="M90.0784 46.0258C90.0784 47.6204 90.0628 49.2307 90.0784 50.8253C90.0784 51.5288 89.7808 51.9822 89.1385 52.248C86.3185 53.4517 83.5142 54.6555 80.6943 55.8593C80.2399 56.0469 79.8326 56.0469 79.3783 55.8593C76.574 54.6399 73.754 53.4517 70.9341 52.248C70.3074 51.9822 70.0098 51.5444 70.0098 50.8566C70.0254 47.6204 70.0254 44.3999 70.0098 41.1638C70.0098 40.4915 70.2918 40.0538 70.9028 39.8036C73.7384 38.5998 76.574 37.3804 79.4096 36.161C79.8326 35.9734 80.2243 35.9734 80.6473 36.161C83.4829 37.3804 86.3185 38.5998 89.1541 39.8036C89.7651 40.0694 90.0471 40.5071 90.0471 41.1638C90.0784 42.8053 90.0784 44.4155 90.0784 46.0258ZM81.3052 52.8733C81.4776 52.8108 81.6029 52.7639 81.7126 52.717C83.5455 51.9353 85.3785 51.138 87.2115 50.3719C87.4778 50.2625 87.5875 50.1374 87.5718 49.8404C87.5561 47.6673 87.5718 45.4943 87.5562 43.3212C87.5562 43.2118 87.5405 43.1023 87.5405 42.9929C87.4935 42.9772 87.4778 42.9772 87.4778 42.9772C85.4725 43.8215 83.4829 44.6813 81.4776 45.5412C81.3836 45.5724 81.3052 45.7288 81.3052 45.8226C81.3052 48.152 81.3052 50.4814 81.3052 52.8733ZM76.9657 44.822C76.9343 44.9002 76.9343 44.9158 76.9343 44.9158C76.9343 45.6506 76.9343 46.401 76.9343 47.1358C76.9343 47.9644 76.4173 48.5272 75.6653 48.5272C74.929 48.5272 74.4277 47.9487 74.4277 47.1201C74.4277 46.0883 74.4277 45.0565 74.4277 44.0403C74.4277 43.9153 74.3964 43.7277 74.3337 43.6964C73.7697 43.4306 73.1744 43.1961 72.5791 42.9303C72.5634 43.0241 72.5477 43.0554 72.5477 43.1023C72.5477 45.3848 72.5477 47.6517 72.5477 49.9342C72.5477 50.1687 72.6417 50.2469 72.8297 50.325C74.7254 51.1223 76.621 51.9353 78.501 52.7482C78.595 52.7795 78.689 52.8108 78.8143 52.8577C78.8143 50.4814 78.8143 48.1363 78.8143 45.7913C78.8143 45.7131 78.7516 45.5881 78.6733 45.5568C78.0936 45.291 77.5453 45.0565 76.9657 44.822ZM85.6292 41.0231C85.1592 40.8198 84.8145 40.6478 84.4385 40.5228C84.2505 40.4602 83.9999 40.4446 83.8275 40.5228C82.6996 41.0074 81.6029 41.539 80.4906 42.0392C79.9266 42.305 79.3783 42.5551 78.7516 42.8522C79.0806 42.9929 79.3469 43.0867 79.5976 43.2274C79.8953 43.3994 80.1616 43.3837 80.4749 43.2274C81.2739 42.8522 82.1042 42.5239 82.9189 42.1799C83.8119 41.8047 84.6735 41.4452 85.6292 41.0231ZM80.9606 39.0689C80.4123 38.6624 79.8953 38.6624 79.2843 38.9594C77.8586 39.6317 76.386 40.2101 74.9447 40.8354C74.8194 40.8823 74.694 40.9605 74.5217 41.0543C74.7567 41.1638 74.9447 41.2263 75.1014 41.3201C75.4773 41.539 75.8063 41.4921 76.198 41.3201C77.6706 40.6166 79.1746 39.9443 80.6629 39.2565C80.7569 39.1783 80.8509 39.1158 80.9606 39.0689Z" fill="#ECAD48"/>
<path d="M76.8088 27.203C76.5425 27.5 76.3075 27.7658 76.0568 28.0003C75.4928 28.5631 74.7252 28.5787 74.2082 28.0628C73.7069 27.5469 73.7382 26.7965 74.2709 26.2493C74.5215 25.9992 74.7879 25.7647 75.0855 25.4833C72.8609 23.6542 70.3699 22.6224 67.503 22.3253C67.503 22.7005 67.503 23.0601 67.503 23.404C67.503 24.2013 66.986 24.7641 66.2653 24.7641C65.5447 24.7641 65.012 24.2013 64.9964 23.4197C64.9964 23.0757 64.9964 22.7162 64.9964 22.3253C62.1451 22.6067 59.6541 23.6385 57.4138 25.4677C57.7115 25.7491 57.9778 25.9836 58.2285 26.2493C58.7455 26.7809 58.7611 27.5469 58.2598 28.0316C57.7585 28.5475 56.9908 28.5318 56.4425 28.0003C56.1918 27.7502 55.9568 27.4844 55.6905 27.1874C53.8419 29.423 52.8236 31.9087 52.5259 34.7696C52.9175 34.7696 53.2779 34.7696 53.6382 34.7696C54.4059 34.7696 54.9698 35.3012 54.9698 36.0047C54.9698 36.7238 54.4059 37.2554 53.6225 37.271C53.2779 37.271 52.9175 37.271 52.5259 37.271C52.8079 40.1163 53.8419 42.6021 55.6748 44.8377C55.9568 44.5406 56.1918 44.2748 56.4582 44.0247C56.9908 43.5088 57.7428 43.4932 58.2441 43.9778C58.7611 44.4781 58.7455 45.2441 58.2128 45.7913C57.9621 46.0414 57.6958 46.2759 57.3981 46.5573C59.6228 48.4021 62.1137 49.4183 64.9807 49.7153C64.9807 49.3245 64.9807 48.9649 64.9807 48.6053C64.9807 47.8237 65.529 47.2609 66.2497 47.2609C66.9547 47.2765 67.4716 47.8237 67.4873 48.6053C67.4873 49.3558 67.4873 50.1218 67.4873 50.8722C67.4873 51.779 66.9703 52.2792 66.0773 52.2636C58.7925 52.2167 52.3536 47.214 50.4893 40.1789C48.202 31.5491 53.3092 22.6849 61.9414 20.3242C62.0981 20.2773 62.2704 20.246 62.4741 20.1835C62.4114 18.8234 62.8344 17.6509 63.931 16.791C64.683 16.197 65.5447 15.9468 66.4847 16.0093C68.0513 16.0875 70.1036 17.3695 70.0096 20.1679C70.7616 20.418 71.5292 20.6369 72.2499 20.9339C77.0595 22.9507 80.2868 26.4213 81.8534 31.3928C82.0884 32.1276 81.7281 32.8311 81.0544 33.0343C80.3651 33.2375 79.7071 32.878 79.4565 32.1432C79.4251 32.0494 79.3938 31.9712 79.3781 31.8774C78.8611 30.2359 78.0465 28.7351 76.9655 27.4062C76.9655 27.3593 76.9185 27.3124 76.8088 27.203ZM67.456 19.777C67.55 19.4331 67.3776 19.011 67.0017 18.7452C66.5787 18.4326 66.0147 18.4326 65.576 18.714C65.1844 18.9797 64.9964 19.4018 65.0747 19.777C65.8737 19.777 66.657 19.777 67.456 19.777Z" fill="#ECAD48"/>
<path d="M66.5635 40.4134C64.1509 40.4134 62.4902 38.7249 62.4902 36.63C62.5059 34.5664 64.1979 32.878 66.2658 32.9093C66.6262 32.9093 66.7828 32.8154 66.9395 32.5028C67.5662 31.2052 68.2241 29.9232 68.8665 28.6257C69.1328 28.0941 69.6498 27.8283 70.1824 27.9065C70.7151 27.9847 71.1694 28.3755 71.2321 28.9227C71.2634 29.2197 71.1851 29.5793 71.0598 29.8451C70.4488 31.1427 69.7908 32.409 69.1485 33.6909C69.0231 33.9411 69.0231 34.0974 69.2111 34.3319C70.1354 35.5513 70.3234 36.8958 69.6498 38.2872C68.9605 39.6786 67.7855 40.3508 66.5635 40.4134ZM67.5192 36.6613C67.5192 35.9891 66.9708 35.4106 66.2815 35.4106C65.5922 35.395 65.0282 35.9422 65.0125 36.63C64.9969 37.3179 65.5765 37.912 66.2658 37.912C66.9395 37.8964 67.5192 37.3336 67.5192 36.6613Z" fill="#ECAD48"/>
<path d="M36.7163 67.3637L39.7447 76.5227H39.864L42.8867 67.3637H45.2049L41.1026 79H38.5004L34.4038 67.3637H36.7163ZM48.8455 67.3637V79H46.7376V67.3637H48.8455ZM52.6225 79H50.3725L54.4691 67.3637H57.0714L61.1737 79H58.9237L55.8157 69.75H55.7248L52.6225 79ZM52.6964 74.4375H58.8327V76.1307H52.6964V74.4375ZM66.6751 79V67.3637H74.1296V69.1307H68.783V72.2898H73.6183V74.0568H68.783V79H66.6751ZM76.0913 79H73.8413L77.9379 67.3637H80.5401L84.6424 79H82.3924L79.2844 69.75H79.1935L76.0913 79ZM76.1651 74.4375H82.3015V76.1307H76.1651V74.4375ZM92.3114 70.5625C92.2584 70.0663 92.0349 69.6799 91.641 69.4034C91.2508 69.1269 90.7433 68.9887 90.1183 68.9887C89.6789 68.9887 89.302 69.0549 88.9876 69.1875C88.6732 69.3201 88.4326 69.5 88.266 69.7273C88.0993 69.9546 88.0141 70.214 88.0103 70.5057C88.0103 70.7481 88.0652 70.9583 88.1751 71.1364C88.2887 71.3144 88.4421 71.4659 88.6353 71.5909C88.8285 71.7121 89.0425 71.8144 89.2773 71.8977C89.5122 71.9811 89.7489 72.0512 89.9876 72.108L91.0785 72.3807C91.5179 72.483 91.9402 72.6212 92.3455 72.7955C92.7546 72.9697 93.1201 73.1894 93.4421 73.4546C93.7679 73.7197 94.0254 74.0398 94.2148 74.4148C94.4042 74.7898 94.4989 75.2292 94.4989 75.733C94.4989 76.4148 94.3247 77.0152 93.9762 77.5341C93.6277 78.0493 93.1239 78.4527 92.4648 78.7443C91.8095 79.0322 91.016 79.1762 90.0842 79.1762C89.1789 79.1762 88.3929 79.036 87.7262 78.7557C87.0633 78.4754 86.5444 78.0663 86.1694 77.5284C85.7982 76.9905 85.5974 76.3352 85.5671 75.5625H87.641C87.6713 75.9678 87.7963 76.3049 88.016 76.5739C88.2357 76.8428 88.5217 77.0436 88.8739 77.1762C89.23 77.3087 89.6277 77.375 90.0671 77.375C90.5255 77.375 90.927 77.3068 91.2717 77.1705C91.6201 77.0303 91.8929 76.8371 92.0898 76.5909C92.2868 76.3409 92.3872 76.0493 92.391 75.7159C92.3872 75.4129 92.2982 75.1629 92.1239 74.9659C91.9497 74.7652 91.7054 74.5985 91.391 74.4659C91.0804 74.3296 90.7167 74.2083 90.3001 74.1023L88.9762 73.7614C88.0179 73.5152 87.2603 73.1421 86.7035 72.6421C86.1504 72.1383 85.8739 71.4697 85.8739 70.6364C85.8739 69.9508 86.0595 69.3504 86.4308 68.8352C86.8058 68.3201 87.3152 67.9205 87.9592 67.6364C88.6031 67.3485 89.3323 67.2046 90.1467 67.2046C90.9724 67.2046 91.6959 67.3485 92.3171 67.6364C92.9421 67.9205 93.4326 68.3163 93.7887 68.8239C94.1448 69.3277 94.3285 69.9072 94.3398 70.5625H92.3114ZM95.8668 69.1307V67.3637H105.151V69.1307H101.554V79H99.4634V69.1307H95.8668Z" fill="#0D0F11"/>
</svg>