<svg width="13" height="13" viewBox="0 0 13 13" fill="none" xmlns="http://www.w3.org/2000/svg">
<g clip-path="url(#clip0_1371_285)">
<path d="M3.68576 7.19417H5.00114V12.6094C5.00114 12.7164 5.08777 12.803 5.19469 12.803H7.42498C7.5319 12.803 7.61852 12.7164 7.61852 12.6094V7.2197H9.13069C9.22901 7.2197 9.31174 7.14592 9.32297 7.04825L9.55263 5.05463C9.55894 4.99979 9.54157 4.94485 9.50487 4.9037C9.46814 4.86252 9.41557 4.83894 9.3604 4.83894H7.61862V3.58923C7.61862 3.21252 7.82144 3.02148 8.22157 3.02148C8.27859 3.02148 9.3604 3.02148 9.3604 3.02148C9.46732 3.02148 9.55394 2.93481 9.55394 2.82793V0.997955C9.55394 0.891033 9.46732 0.804408 9.3604 0.804408H7.79091C7.77984 0.803869 7.75526 0.802979 7.71902 0.802979C7.4467 0.802979 6.50013 0.856439 5.75241 1.54431C4.92394 2.30659 5.03911 3.21927 5.06662 3.37752V4.83889H3.68573C3.57881 4.83889 3.49219 4.92552 3.49219 5.03244V7.0006C3.49221 7.1075 3.57884 7.19417 3.68576 7.19417Z" fill="white"/>
</g>
<defs>
<clipPath id="clip0_1371_285">
<rect width="12" height="12" fill="white" transform="translate(0.523438 0.802979)"/>
</clipPath>
</defs>
</svg>
