<svg width="15" height="14" viewBox="0 0 15 14" fill="none" xmlns="http://www.w3.org/2000/svg">
<g clip-path="url(#clip0_1371_571)">
<path d="M10.2734 1.30298H4.77344C3.25465 1.30298 2.02344 2.5342 2.02344 4.05298V9.55298C2.02344 11.0718 3.25465 12.303 4.77344 12.303H10.2734C11.7922 12.303 13.0234 11.0718 13.0234 9.55298V4.05298C13.0234 2.5342 11.7922 1.30298 10.2734 1.30298Z" stroke="white" stroke-linecap="round" stroke-linejoin="round"/>
<path d="M9.72386 6.45652C9.79174 6.91426 9.71355 7.38174 9.50043 7.79248C9.28731 8.20322 8.95009 8.5363 8.53676 8.74434C8.12342 8.95239 7.65501 9.0248 7.19814 8.95129C6.74128 8.87777 6.31923 8.66207 5.99202 8.33486C5.66482 8.00765 5.44912 7.5856 5.3756 7.12874C5.30208 6.67188 5.3745 6.20346 5.58254 5.79013C5.79059 5.37679 6.12366 5.03958 6.5344 4.82646C6.94514 4.61333 7.41263 4.53515 7.87036 4.60302C8.33727 4.67226 8.76953 4.88983 9.10329 5.22359C9.43706 5.55735 9.65463 5.98962 9.72386 6.45652Z" stroke="white" stroke-linecap="round" stroke-linejoin="round"/>
<path d="M10.5488 3.77802H10.5543" stroke="white" stroke-linecap="round" stroke-linejoin="round"/>
</g>
<defs>
<clipPath id="clip0_1371_571">
<rect width="13.2" height="13.2" fill="white" transform="translate(0.923828 0.203003)"/>
</clipPath>
</defs>
</svg>
