<svg width="15" height="16" viewBox="0 0 15 16" fill="none" xmlns="http://www.w3.org/2000/svg">
<g clip-path="url(#clip0_1330_26314)">
<path fill-rule="evenodd" clip-rule="evenodd" d="M2.42715 0.459717H12.0564C12.74 0.459717 13.2941 1.0534 13.2941 1.78577V12.1029C13.2941 12.8353 12.7399 13.429 12.0564 13.429H6.70171L4.35792 15.2324V13.429H2.42715C1.74356 13.429 1.18945 12.8352 1.18945 12.1029V1.78582C1.18945 1.0534 1.7436 0.459717 2.42715 0.459717ZM13.2935 9.76402V11.8421C13.0419 12.1173 12.6914 12.2883 12.3034 12.2883H6.18967C5.78056 12.2883 5.40605 12.0424 5.22026 11.652C5.03448 11.2615 5.06877 10.7923 5.30914 10.4376L9.2304 4.64996H6.80797C6.04239 4.64996 5.42172 3.98496 5.42172 3.1647C5.42172 2.34445 6.04239 1.67944 6.80797 1.67944H12.569C12.841 1.67944 13.0974 1.78869 13.2935 1.97631V3.7581L9.48482 9.31783H12.3033C12.6913 9.31783 13.0419 9.4888 13.2935 9.76402Z" fill="white"/>
</g>
<defs>
<clipPath id="clip0_1330_26314">
<rect width="14" height="15" fill="white" transform="translate(0.0234375 0.855103)"/>
</clipPath>
</defs>
</svg>
