<svg width="11" height="13" viewBox="0 0 11 13" fill="none" xmlns="http://www.w3.org/2000/svg">
<path d="M3.54173 12.8551C2.73361 12.8551 1.9435 12.5731 1.31735 12.0609C0.495014 11.3883 0.0234375 10.3954 0.0234375 9.33681C0.0234375 8.56574 0.268617 7.83325 0.732325 7.21877C1.18004 6.62562 1.8171 6.1812 2.52624 5.96775C3.16 5.77689 3.82828 6.09389 4.08032 6.70532C4.09656 6.74441 4.11077 6.78502 4.12295 6.82512C4.22169 7.15304 4.18691 7.49974 4.02498 7.80127C3.86305 8.10279 3.59326 8.32335 3.26534 8.42208C2.86584 8.54239 2.5869 8.91853 2.5869 9.33681C2.5869 9.67107 2.76609 9.98554 3.05467 10.1576C3.21407 10.2528 3.39681 10.2987 3.58336 10.2909C4.09554 10.269 4.49681 9.84138 4.49681 9.31701V1.15402C4.49681 0.569242 4.88463 0.0537563 5.43971 -0.0992904C5.50088 -0.116296 5.56383 -0.128478 5.62626 -0.135839C5.74225 -0.149798 5.85977 -0.147514 5.97576 -0.129747C6.41789 -0.064011 6.79886 0.233707 6.97043 0.647415C7.03515 0.803507 7.0679 0.968483 7.0679 1.13777C7.0679 1.8162 7.37627 2.44539 7.91409 2.86393C8.29887 3.16342 8.75978 3.32281 9.24684 3.32459C9.76994 3.32636 10.2377 3.6383 10.4387 4.11926C10.5265 4.32992 10.556 4.5614 10.5235 4.78881C10.4334 5.41648 9.88111 5.88806 9.23745 5.88806C9.23517 5.88806 9.23314 5.88806 9.23085 5.88806C8.46613 5.88425 7.72729 5.69998 7.06028 5.35049V9.3429C7.06028 9.34696 7.06028 9.35102 7.06003 9.35534C7.05419 10.3987 6.58921 11.379 5.78388 12.0462C5.15443 12.5678 4.35824 12.8551 3.54173 12.8551ZM2.89731 6.6741C2.84706 6.6741 2.79604 6.68146 2.74554 6.69669C2.18995 6.86395 1.69071 7.21243 1.33994 7.67741C0.976743 8.15863 0.784864 8.73249 0.784864 9.33681C0.784864 10.166 1.15466 10.9442 1.79959 11.4716C2.2902 11.8729 2.90899 12.0937 3.54173 12.0937C4.18108 12.0937 4.80494 11.8685 5.29784 11.4599C5.93058 10.9355 6.2953 10.1657 6.2986 9.34772C6.2986 9.34493 6.2986 9.34163 6.29886 9.33782V3.9152L6.90444 4.35835C7.58541 4.85683 8.39125 5.12231 9.23466 5.12663H9.23745C9.50471 5.12663 9.73314 4.93551 9.76969 4.68094C9.78289 4.58805 9.77172 4.49795 9.73619 4.41292C9.65471 4.21825 9.45725 4.08678 9.24431 4.08601C8.58719 4.08373 7.96536 3.86875 7.44658 3.46469C6.72221 2.90073 6.30672 2.0525 6.30672 1.13777C6.30672 1.06899 6.29353 1.00199 6.26738 0.939041C6.19759 0.770766 6.04276 0.649699 5.86357 0.623303L5.86028 0.622795C5.81256 0.615435 5.76434 0.61442 5.71662 0.620257C5.692 0.623303 5.66713 0.628125 5.64251 0.634978C5.41586 0.697161 5.25799 0.910614 5.25799 1.15402V9.31701C5.25799 9.76295 5.08997 10.1876 4.78514 10.5127C4.47702 10.8414 4.06153 11.0328 3.61534 11.0515C3.28006 11.0655 2.95137 10.9828 2.66432 10.8114C2.1468 10.5028 1.82523 9.93757 1.82523 9.33681C1.82523 8.58554 2.327 7.90964 3.04554 7.69314C3.17853 7.65304 3.28818 7.56345 3.35391 7.44111C3.41965 7.31878 3.43386 7.17791 3.39376 7.04492C3.38894 7.02867 3.38285 7.01192 3.37625 6.99568C3.29402 6.79618 3.1029 6.6741 2.89731 6.6741ZM7.05977 9.34924V9.35254C7.05977 9.35153 7.05977 9.35026 7.05977 9.34924Z" fill="white"/>
</svg>
