<svg width="13" height="9" viewBox="0 0 13 9" fill="none" xmlns="http://www.w3.org/2000/svg">
<path fill-rule="evenodd" clip-rule="evenodd" d="M12.3999 3.56345C12.4263 2.78619 12.2591 2.01474 11.9137 1.32074C11.6794 1.03597 11.3543 0.843803 10.9949 0.777711C9.50848 0.64061 8.01591 0.584416 6.52358 0.609372C5.03669 0.583284 3.54949 0.637664 2.06828 0.77228C1.77544 0.82643 1.50443 0.966056 1.28834 1.17412C0.80755 1.62484 0.754129 2.39594 0.700708 3.04757C0.623201 4.21919 0.623201 5.39478 0.700708 6.5664C0.716163 6.93317 0.769885 7.29723 0.860971 7.65246C0.925383 7.92673 1.0557 8.18047 1.24026 8.39098C1.45782 8.61007 1.73514 8.75764 2.03623 8.81454C3.18794 8.95905 4.3484 9.01894 5.50858 8.99374C7.37831 9.0209 9.01833 8.99374 10.9575 8.8417C11.266 8.78829 11.5511 8.64053 11.7748 8.41813C11.9244 8.26604 12.0361 8.07988 12.1007 7.8751C12.2918 7.27919 12.3856 6.65552 12.3785 6.0288C12.3999 5.72471 12.3999 3.88927 12.3999 3.56345ZM5.3162 6.35463V2.99328L8.47871 4.6821C7.59193 5.18168 6.42201 5.74643 5.3162 6.35463Z" fill="white"/>
</svg>
